<svg xmlns="http://www.w3.org/2000/svg" viewBox="0 0 1600 900"><defs><radialGradient id="sky"><stop stop-color="hsl(113,50%,30%)"/><stop offset="1" stop-color="hsl(113,55%,12%)"/></radialGradient><radialGradient id="planet"><stop stop-color="#eeff95"/><stop offset="1" stop-color="hsl(153,80%,65%)"/></radialGradient></defs><rect width="1600" height="900" fill="url(#sky)"/><circle cx="136" cy="352" r="2" fill="#fff" opacity="0.81"/><circle cx="662" cy="770" r="3" fill="#fff" opacity="0.53"/><circle cx="101" cy="696" r="1" fill="#fff" opacity="0.69"/><circle cx="565" cy="158" r="2" fill="#fff" opacity="0.68"/><circle cx="1291" cy="559" r="3" fill="#fff" opacity="0.34"/><circle cx="1234" cy="292" r="3" fill="#fff" opacity="0.44"/><circle cx="62" cy="254" r="3" fill="#fff" opacity="0.29"/><circle cx="866" cy="746" r="2" fill="#fff" opacity="0.41"/><circle cx="733" cy="274" r="3" fill="#fff" opacity="0.46"/><circle cx="1259" cy="635" r="1" fill="#fff" opacity="0.63"/><circle cx="1408" cy="557" r="3" fill="#fff" opacity="0.33"/><circle cx="1577" cy="67" r="3" fill="#fff" opacity="0.37"/><circle cx="1220" cy="545" r="2" fill="#fff" opacity="0.29"/><circle cx="455" cy="334" r="2" fill="#fff" opacity="0.58"/><circle cx="1253" cy="501" r="3" fill="#fff" opacity="0.66"/><circle cx="1563" cy="388" r="2" fill="#fff" opacity="0.83"/><circle cx="1590" cy="706" r="3" fill="#fff" opacity="0.21"/><circle cx="304" cy="11" r="1" fill="#fff" opacity="0.80"/><circle cx="621" cy="64" r="1" fill="#fff" opacity="0.65"/><circle cx="766" cy="711" r="3" fill="#fff" opacity="0.24"/><circle cx="671" cy="75" r="2" fill="#fff" opacity="0.33"/><circle cx="873" cy="304" r="3" fill="#fff" opacity="0.51"/><circle cx="535" cy="450" r="2" fill="#fff" opacity="0.83"/><circle cx="210" cy="732" r="2" fill="#fff" opacity="0.52"/><circle cx="934" cy="666" r="1" fill="#fff" opacity="0.82"/><circle cx="1237" cy="73" r="3" fill="#fff" opacity="0.80"/><circle cx="499" cy="416" r="2" fill="#fff" opacity="0.54"/><circle cx="19" cy="684" r="1" fill="#fff" opacity="0.44"/><circle cx="210" cy="628" r="3" fill="#fff" opacity="0.28"/><circle cx="1215" cy="269" r="3" fill="#fff" opacity="0.84"/><circle cx="166" cy="262" r="2" fill="#fff" opacity="0.82"/><circle cx="1385" cy="689" r="3" fill="#fff" opacity="0.67"/><circle cx="933" cy="680" r="1" fill="#fff" opacity="0.70"/><circle cx="948" cy="585" r="1" fill="#fff" opacity="0.68"/><circle cx="771" cy="626" r="1" fill="#fff" opacity="0.37"/><circle cx="227" cy="351" r="3" fill="#fff" opacity="0.57"/><circle cx="867" cy="740" r="3" fill="#fff" opacity="0.54"/><circle cx="1103" cy="747" r="1" fill="#fff" opacity="0.21"/><circle cx="68" cy="329" r="1" fill="#fff" opacity="0.52"/><circle cx="531" cy="831" r="3" fill="#fff" opacity="0.22"/><circle cx="846" cy="740" r="3" fill="#fff" opacity="0.73"/><circle cx="529" cy="119" r="2" fill="#fff" opacity="0.34"/><circle cx="61" cy="489" r="3" fill="#fff" opacity="0.82"/><circle cx="535" cy="410" r="1" fill="#fff" opacity="0.38"/><circle cx="1193" cy="228" r="1" fill="#fff" opacity="0.76"/><circle cx="1238" cy="319" r="2" fill="#fff" opacity="0.80"/><circle cx="94" cy="118" r="2" fill="#fff" opacity="0.23"/><circle cx="253" cy="91" r="1" fill="#fff" opacity="0.53"/><circle cx="409" cy="522" r="3" fill="#fff" opacity="0.38"/><circle cx="567" cy="195" r="2" fill="#fff" opacity="0.49"/><circle cx="602" cy="320" r="3" fill="#fff" opacity="0.77"/><circle cx="618" cy="688" r="3" fill="#fff" opacity="0.33"/><circle cx="257" cy="662" r="3" fill="#fff" opacity="0.69"/><circle cx="467" cy="119" r="1" fill="#fff" opacity="0.26"/><circle cx="695" cy="98" r="3" fill="#fff" opacity="0.82"/><circle cx="1578" cy="645" r="1" fill="#fff" opacity="0.79"/><circle cx="1432" cy="234" r="2" fill="#fff" opacity="0.54"/><circle cx="168" cy="796" r="1" fill="#fff" opacity="0.64"/><circle cx="1143" cy="105" r="1" fill="#fff" opacity="0.24"/><circle cx="140" cy="481" r="1" fill="#fff" opacity="0.66"/><circle cx="491" cy="340" r="2" fill="#fff" opacity="0.50"/><circle cx="735" cy="722" r="1" fill="#fff" opacity="0.40"/><circle cx="115" cy="183" r="2" fill="#fff" opacity="0.39"/><circle cx="179" cy="815" r="1" fill="#fff" opacity="0.66"/><circle cx="508" cy="429" r="3" fill="#fff" opacity="0.67"/><circle cx="1527" cy="763" r="1" fill="#fff" opacity="0.21"/><circle cx="1282" cy="34" r="3" fill="#fff" opacity="0.21"/><circle cx="579" cy="729" r="1" fill="#fff" opacity="0.79"/><circle cx="253" cy="594" r="1" fill="#fff" opacity="0.82"/><circle cx="678" cy="214" r="1" fill="#fff" opacity="0.44"/><circle cx="993" cy="44" r="2" fill="#fff" opacity="0.35"/><circle cx="1304" cy="404" r="2" fill="#fff" opacity="0.23"/><circle cx="1250" cy="483" r="3" fill="#fff" opacity="0.78"/><circle cx="991" cy="169" r="2" fill="#fff" opacity="0.52"/><circle cx="213" cy="483" r="3" fill="#fff" opacity="0.23"/><circle cx="793" cy="424" r="1" fill="#fff" opacity="0.72"/><circle cx="1273" cy="184" r="1" fill="#fff" opacity="0.81"/><circle cx="47" cy="549" r="1" fill="#fff" opacity="0.31"/><circle cx="633" cy="340" r="3" fill="#fff" opacity="0.24"/><circle cx="1403" cy="743" r="3" fill="#fff" opacity="0.53"/><circle cx="1016" cy="33" r="2" fill="#fff" opacity="0.26"/><circle cx="1444" cy="839" r="3" fill="#fff" opacity="0.83"/><circle cx="1011" cy="402" r="1" fill="#fff" opacity="0.84"/><circle cx="1293" cy="444" r="2" fill="#fff" opacity="0.54"/><circle cx="1071" cy="360" r="2" fill="#fff" opacity="0.81"/><circle cx="501" cy="557" r="1" fill="#fff" opacity="0.35"/><circle cx="165" cy="290" r="3" fill="#fff" opacity="0.75"/><circle cx="829" cy="579" r="1" fill="#fff" opacity="0.21"/><circle cx="1049" cy="697" r="3" fill="#fff" opacity="0.21"/><circle cx="1388" cy="678" r="3" fill="#fff" opacity="0.44"/><circle cx="18" cy="219" r="1" fill="#fff" opacity="0.42"/><circle cx="1504" cy="316" r="1" fill="#fff" opacity="0.28"/><circle cx="1418" cy="747" r="2" fill="#fff" opacity="0.58"/><circle cx="1000" cy="752" r="2" fill="#fff" opacity="0.31"/><circle cx="397" cy="520" r="1" fill="#fff" opacity="0.75"/><circle cx="428" cy="224" r="1" fill="#fff" opacity="0.55"/><circle cx="322" cy="567" r="1" fill="#fff" opacity="0.63"/><circle cx="536" cy="285" r="1" fill="#fff" opacity="0.70"/><circle cx="1434" cy="577" r="1" fill="#fff" opacity="0.40"/><circle cx="672" cy="217" r="2" fill="#fff" opacity="0.70"/><circle cx="733" cy="74" r="2" fill="#fff" opacity="0.69"/><circle cx="1097" cy="276" r="1" fill="#fff" opacity="0.66"/><circle cx="773" cy="416" r="3" fill="#fff" opacity="0.73"/><circle cx="1420" cy="463" r="1" fill="#fff" opacity="0.60"/><circle cx="1298" cy="227" r="2" fill="#fff" opacity="0.70"/><circle cx="661" cy="461" r="3" fill="#fff" opacity="0.21"/><circle cx="1259" cy="711" r="3" fill="#fff" opacity="0.49"/><circle cx="1213" cy="778" r="3" fill="#fff" opacity="0.39"/><circle cx="1313" cy="408" r="2" fill="#fff" opacity="0.26"/><circle cx="147" cy="341" r="2" fill="#fff" opacity="0.49"/><circle cx="1084" cy="159" r="2" fill="#fff" opacity="0.51"/><circle cx="222" cy="385" r="3" fill="#fff" opacity="0.48"/><circle cx="759" cy="66" r="3" fill="#fff" opacity="0.36"/><circle cx="1011" cy="475" r="1" fill="#fff" opacity="0.80"/><circle cx="1465" cy="635" r="3" fill="#fff" opacity="0.40"/><circle cx="550" cy="698" r="1" fill="#fff" opacity="0.74"/><circle cx="1261" cy="815" r="3" fill="#fff" opacity="0.41"/><circle cx="1558" cy="481" r="1" fill="#fff" opacity="0.47"/><circle cx="1416" cy="440" r="1" fill="#fff" opacity="0.48"/><circle cx="729" cy="155" r="1" fill="#fff" opacity="0.40"/><circle cx="213" cy="801" r="1" fill="#fff" opacity="0.75"/><circle cx="620" cy="425" r="3" fill="#fff" opacity="0.46"/><circle cx="255" cy="614" r="1" fill="#fff" opacity="0.81"/><circle cx="1201" cy="694" r="2" fill="#fff" opacity="0.54"/><circle cx="681" cy="324" r="2" fill="#fff" opacity="0.29"/><circle cx="762" cy="487" r="2" fill="#fff" opacity="0.73"/><circle cx="828" cy="37" r="1" fill="#fff" opacity="0.55"/><circle cx="1130" cy="133" r="3" fill="#fff" opacity="0.57"/><circle cx="1447" cy="679" r="3" fill="#fff" opacity="0.23"/><circle cx="364" cy="206" r="3" fill="#fff" opacity="0.39"/><circle cx="287" cy="189" r="2" fill="#fff" opacity="0.22"/><circle cx="1381" cy="111" r="3" fill="#fff" opacity="0.61"/><circle cx="1155" cy="137" r="1" fill="#fff" opacity="0.37"/><circle cx="1278" cy="91" r="1" fill="#fff" opacity="0.69"/><circle cx="1068" cy="456" r="3" fill="#fff" opacity="0.38"/><circle cx="467" cy="778" r="1" fill="#fff" opacity="0.51"/><circle cx="9" cy="581" r="3" fill="#fff" opacity="0.35"/><circle cx="1376" cy="128" r="1" fill="#fff" opacity="0.76"/><circle cx="872" cy="339" r="3" fill="#fff" opacity="0.70"/><circle cx="740" cy="294" r="3" fill="#fff" opacity="0.23"/><circle cx="1210" cy="270" r="155" fill="url(#planet)"/><path d="M0 520Q400 300 800 520T1600 520" fill="none" stroke="#ffbcea" stroke-width="70" opacity=".12"/><g transform="translate(1210 270) scale(2.3)"><ellipse rx="34" ry="23" transform="rotate(-25)" fill="#edff61"/><path d="M20 -24q25 -20 32 0q-20 14 -32 0" fill="#75e8a0"/></g><ellipse cx="430" cy="230" rx="110" ry="60" fill="hsl(153,80%,65%)" opacity=".13"/><rect x="0" y="472" width="43" height="228" rx="8" fill="hsl(113,35%,23%)"/><path d="M12 482v203" stroke="hsl(153,80%,65%)" stroke-width="3" opacity=".4"/><rect x="74" y="544" width="60" height="156" rx="8" fill="hsl(113,35%,23%)"/><path d="M86 554v131" stroke="hsl(153,80%,65%)" stroke-width="3" opacity=".4"/><rect x="148" y="453" width="59" height="247" rx="8" fill="hsl(113,35%,23%)"/><path d="M160 463v222" stroke="hsl(153,80%,65%)" stroke-width="3" opacity=".4"/><rect x="222" y="515" width="46" height="185" rx="8" fill="hsl(113,35%,23%)"/><path d="M234 525v160" stroke="hsl(153,80%,65%)" stroke-width="3" opacity=".4"/><rect x="296" y="503" width="67" height="197" rx="8" fill="hsl(113,35%,23%)"/><path d="M308 513v172" stroke="hsl(153,80%,65%)" stroke-width="3" opacity=".4"/><rect x="370" y="604" width="59" height="96" rx="8" fill="hsl(113,35%,23%)"/><path d="M382 614v71" stroke="hsl(153,80%,65%)" stroke-width="3" opacity=".4"/><rect x="444" y="482" width="37" height="218" rx="8" fill="hsl(113,35%,23%)"/><path d="M456 492v193" stroke="hsl(153,80%,65%)" stroke-width="3" opacity=".4"/><rect x="518" y="543" width="40" height="157" rx="8" fill="hsl(113,35%,23%)"/><path d="M530 553v132" stroke="hsl(153,80%,65%)" stroke-width="3" opacity=".4"/><rect x="592" y="520" width="45" height="180" rx="8" fill="hsl(113,35%,23%)"/><path d="M604 530v155" stroke="hsl(153,80%,65%)" stroke-width="3" opacity=".4"/><rect x="666" y="600" width="64" height="100" rx="8" fill="hsl(113,35%,23%)"/><path d="M678 610v75" stroke="hsl(153,80%,65%)" stroke-width="3" opacity=".4"/><rect x="740" y="418" width="42" height="282" rx="8" fill="hsl(113,35%,23%)"/><path d="M752 428v257" stroke="hsl(153,80%,65%)" stroke-width="3" opacity=".4"/><rect x="814" y="583" width="38" height="117" rx="8" fill="hsl(113,35%,23%)"/><path d="M826 593v92" stroke="hsl(153,80%,65%)" stroke-width="3" opacity=".4"/><rect x="888" y="565" width="54" height="135" rx="8" fill="hsl(113,35%,23%)"/><path d="M900 575v110" stroke="hsl(153,80%,65%)" stroke-width="3" opacity=".4"/><rect x="962" y="464" width="40" height="236" rx="8" fill="hsl(113,35%,23%)"/><path d="M974 474v211" stroke="hsl(153,80%,65%)" stroke-width="3" opacity=".4"/><rect x="1036" y="424" width="39" height="276" rx="8" fill="hsl(113,35%,23%)"/><path d="M1048 434v251" stroke="hsl(153,80%,65%)" stroke-width="3" opacity=".4"/><rect x="1110" y="541" width="51" height="159" rx="8" fill="hsl(113,35%,23%)"/><path d="M1122 551v134" stroke="hsl(153,80%,65%)" stroke-width="3" opacity=".4"/><rect x="1184" y="479" width="37" height="221" rx="8" fill="hsl(113,35%,23%)"/><path d="M1196 489v196" stroke="hsl(153,80%,65%)" stroke-width="3" opacity=".4"/><rect x="1258" y="598" width="49" height="102" rx="8" fill="hsl(113,35%,23%)"/><path d="M1270 608v77" stroke="hsl(153,80%,65%)" stroke-width="3" opacity=".4"/><rect x="1332" y="446" width="46" height="254" rx="8" fill="hsl(113,35%,23%)"/><path d="M1344 456v229" stroke="hsl(153,80%,65%)" stroke-width="3" opacity=".4"/><rect x="1406" y="612" width="39" height="88" rx="8" fill="hsl(113,35%,23%)"/><path d="M1418 622v63" stroke="hsl(153,80%,65%)" stroke-width="3" opacity=".4"/><rect x="1480" y="590" width="38" height="110" rx="8" fill="hsl(113,35%,23%)"/><path d="M1492 600v85" stroke="hsl(153,80%,65%)" stroke-width="3" opacity=".4"/><rect x="1554" y="619" width="38" height="81" rx="8" fill="hsl(113,35%,23%)"/><path d="M1566 629v56" stroke="hsl(153,80%,65%)" stroke-width="3" opacity=".4"/><path d="M0 740Q500 650 950 760T1600 720V900H0Z" fill="hsl(113,30%,16%)"/><path d="M0 786Q700 695 1600 795" fill="none" stroke="hsl(153,80%,65%)" stroke-width="2" opacity=".3"/><g transform="translate(180 564)"><ellipse cy="120" rx="108" ry="22" fill="hsl(153,80%,65%)" opacity=".2"/><rect x="-78" y="-16" width="156" height="115" rx="18" fill="#28384d" stroke="hsl(153,80%,65%)" stroke-width="3"/><path d="M-94 -16L-54 -70H54L94 -16Z" fill="hsl(153,80%,65%)"/><rect x="-53" y="20" width="106" height="44" rx="8" fill="#a8eee4"/><g transform="translate(0 -40) scale(.65)"><ellipse rx="34" ry="23" transform="rotate(-25)" fill="#edff61"/><path d="M20 -24q25 -20 32 0q-20 14 -32 0" fill="#75e8a0"/></g><path d="M-100 100h200" stroke="#e9fd75" stroke-width="7"/><circle cx="-60" cy="122" r="8" fill="#f3ff98"/><circle cx="60" cy="122" r="8" fill="#f3ff98"/></g><g transform="translate(370 526)"><ellipse cy="120" rx="108" ry="22" fill="hsl(153,80%,65%)" opacity=".2"/><rect x="-78" y="-16" width="156" height="115" rx="18" fill="#28384d" stroke="hsl(153,80%,65%)" stroke-width="3"/><path d="M-94 -16L-54 -70H54L94 -16Z" fill="hsl(153,80%,65%)"/><rect x="-53" y="20" width="106" height="44" rx="8" fill="#a8eee4"/><g transform="translate(0 -40) scale(.65)"><ellipse rx="34" ry="23" transform="rotate(-25)" fill="#edff61"/><path d="M20 -24q25 -20 32 0q-20 14 -32 0" fill="#75e8a0"/></g><path d="M-100 100h200" stroke="#e9fd75" stroke-width="7"/><circle cx="-60" cy="122" r="8" fill="#f3ff98"/><circle cx="60" cy="122" r="8" fill="#f3ff98"/></g><g transform="translate(560 465)"><ellipse cy="120" rx="108" ry="22" fill="hsl(153,80%,65%)" opacity=".2"/><rect x="-78" y="-16" width="156" height="115" rx="18" fill="#28384d" stroke="hsl(153,80%,65%)" stroke-width="3"/><path d="M-94 -16L-54 -70H54L94 -16Z" fill="hsl(153,80%,65%)"/><rect x="-53" y="20" width="106" height="44" rx="8" fill="#a8eee4"/><g transform="translate(0 -40) scale(.65)"><ellipse rx="34" ry="23" transform="rotate(-25)" fill="#edff61"/><path d="M20 -24q25 -20 32 0q-20 14 -32 0" fill="#75e8a0"/></g><path d="M-100 100h200" stroke="#e9fd75" stroke-width="7"/><circle cx="-60" cy="122" r="8" fill="#f3ff98"/><circle cx="60" cy="122" r="8" fill="#f3ff98"/></g><g transform="translate(750 436)"><ellipse cy="120" rx="108" ry="22" fill="hsl(153,80%,65%)" opacity=".2"/><rect x="-78" y="-16" width="156" height="115" rx="18" fill="#28384d" stroke="hsl(153,80%,65%)" stroke-width="3"/><path d="M-94 -16L-54 -70H54L94 -16Z" fill="hsl(153,80%,65%)"/><rect x="-53" y="20" width="106" height="44" rx="8" fill="#a8eee4"/><g transform="translate(0 -40) scale(.65)"><ellipse rx="34" ry="23" transform="rotate(-25)" fill="#edff61"/><path d="M20 -24q25 -20 32 0q-20 14 -32 0" fill="#75e8a0"/></g><path d="M-100 100h200" stroke="#e9fd75" stroke-width="7"/><circle cx="-60" cy="122" r="8" fill="#f3ff98"/><circle cx="60" cy="122" r="8" fill="#f3ff98"/></g><g transform="translate(810 345)"><ellipse rx="95" ry="125" fill="none" stroke="hsl(153,80%,65%)" stroke-width="16" opacity=".5"/><ellipse rx="72" ry="107" fill="none" stroke="#eaff8b" stroke-width="4"/><ellipse rx="34" ry="23" transform="rotate(-25)" fill="#edff61"/><path d="M20 -24q25 -20 32 0q-20 14 -32 0" fill="#75e8a0"/></g></svg>