<svg xmlns="http://www.w3.org/2000/svg" viewBox="0 0 1600 900"><defs><radialGradient id="sky"><stop stop-color="hsl(311,50%,30%)"/><stop offset="1" stop-color="hsl(311,55%,12%)"/></radialGradient><radialGradient id="planet"><stop stop-color="#eeff95"/><stop offset="1" stop-color="hsl(351,80%,65%)"/></radialGradient></defs><rect width="1600" height="900" fill="url(#sky)"/><circle cx="153" cy="118" r="2" fill="#fff" opacity="0.83"/><circle cx="850" cy="273" r="3" fill="#fff" opacity="0.48"/><circle cx="1273" cy="284" r="1" fill="#fff" opacity="0.62"/><circle cx="1362" cy="181" r="2" fill="#fff" opacity="0.22"/><circle cx="900" cy="185" r="1" fill="#fff" opacity="0.64"/><circle cx="1005" cy="315" r="1" fill="#fff" opacity="0.46"/><circle cx="1211" cy="13" r="2" fill="#fff" opacity="0.62"/><circle cx="1502" cy="721" r="1" fill="#fff" opacity="0.83"/><circle cx="759" cy="531" r="1" fill="#fff" opacity="0.66"/><circle cx="909" cy="782" r="3" fill="#fff" opacity="0.73"/><circle cx="1332" cy="684" r="3" fill="#fff" opacity="0.45"/><circle cx="83" cy="366" r="1" fill="#fff" opacity="0.48"/><circle cx="5" cy="609" r="2" fill="#fff" opacity="0.43"/><circle cx="53" cy="139" r="3" fill="#fff" opacity="0.20"/><circle cx="336" cy="622" r="1" fill="#fff" opacity="0.68"/><circle cx="899" cy="79" r="2" fill="#fff" opacity="0.80"/><circle cx="529" cy="817" r="3" fill="#fff" opacity="0.52"/><circle cx="1511" cy="194" r="3" fill="#fff" opacity="0.55"/><circle cx="1418" cy="651" r="3" fill="#fff" opacity="0.48"/><circle cx="1120" cy="123" r="3" fill="#fff" opacity="0.45"/><circle cx="597" cy="448" r="2" fill="#fff" opacity="0.70"/><circle cx="483" cy="7" r="1" fill="#fff" opacity="0.53"/><circle cx="995" cy="251" r="2" fill="#fff" opacity="0.26"/><circle cx="622" cy="314" r="3" fill="#fff" opacity="0.53"/><circle cx="793" cy="696" r="3" fill="#fff" opacity="0.72"/><circle cx="1559" cy="368" r="1" fill="#fff" opacity="0.62"/><circle cx="1579" cy="277" r="1" fill="#fff" opacity="0.53"/><circle cx="505" cy="471" r="1" fill="#fff" opacity="0.29"/><circle cx="596" cy="788" r="2" fill="#fff" opacity="0.63"/><circle cx="1101" cy="55" r="2" fill="#fff" opacity="0.59"/><circle cx="34" cy="725" r="3" fill="#fff" opacity="0.38"/><circle cx="1275" cy="778" r="2" fill="#fff" opacity="0.24"/><circle cx="1412" cy="230" r="1" fill="#fff" opacity="0.30"/><circle cx="1551" cy="10" r="2" fill="#fff" opacity="0.82"/><circle cx="709" cy="153" r="1" fill="#fff" opacity="0.63"/><circle cx="1405" cy="639" r="3" fill="#fff" opacity="0.24"/><circle cx="1274" cy="367" r="3" fill="#fff" opacity="0.64"/><circle cx="122" cy="362" r="3" fill="#fff" opacity="0.82"/><circle cx="407" cy="848" r="1" fill="#fff" opacity="0.33"/><circle cx="204" cy="97" r="3" fill="#fff" opacity="0.22"/><circle cx="591" cy="373" r="3" fill="#fff" opacity="0.59"/><circle cx="61" cy="620" r="1" fill="#fff" opacity="0.49"/><circle cx="1421" cy="690" r="2" fill="#fff" opacity="0.64"/><circle cx="973" cy="317" r="3" fill="#fff" opacity="0.57"/><circle cx="486" cy="406" r="1" fill="#fff" opacity="0.32"/><circle cx="650" cy="760" r="1" fill="#fff" opacity="0.20"/><circle cx="320" cy="733" r="3" fill="#fff" opacity="0.25"/><circle cx="641" cy="540" r="1" fill="#fff" opacity="0.58"/><circle cx="139" cy="810" r="3" fill="#fff" opacity="0.36"/><circle cx="816" cy="755" r="3" fill="#fff" opacity="0.83"/><circle cx="117" cy="430" r="1" fill="#fff" opacity="0.50"/><circle cx="691" cy="418" r="2" fill="#fff" opacity="0.33"/><circle cx="679" cy="357" r="2" fill="#fff" opacity="0.34"/><circle cx="1275" cy="129" r="3" fill="#fff" opacity="0.71"/><circle cx="1158" cy="469" r="2" fill="#fff" opacity="0.61"/><circle cx="205" cy="333" r="3" fill="#fff" opacity="0.72"/><circle cx="6" cy="710" r="1" fill="#fff" opacity="0.34"/><circle cx="835" cy="169" r="3" fill="#fff" opacity="0.55"/><circle cx="1079" cy="833" r="3" fill="#fff" opacity="0.48"/><circle cx="561" cy="553" r="3" fill="#fff" opacity="0.35"/><circle cx="680" cy="596" r="2" fill="#fff" opacity="0.57"/><circle cx="1099" cy="267" r="3" fill="#fff" opacity="0.75"/><circle cx="624" cy="352" r="3" fill="#fff" opacity="0.44"/><circle cx="1268" cy="54" r="2" fill="#fff" opacity="0.33"/><circle cx="1577" cy="24" r="2" fill="#fff" opacity="0.60"/><circle cx="184" cy="632" r="2" fill="#fff" opacity="0.45"/><circle cx="16" cy="34" r="1" fill="#fff" opacity="0.55"/><circle cx="798" cy="596" r="2" fill="#fff" opacity="0.75"/><circle cx="1508" cy="602" r="3" fill="#fff" opacity="0.37"/><circle cx="652" cy="739" r="2" fill="#fff" opacity="0.55"/><circle cx="1128" cy="279" r="2" fill="#fff" opacity="0.68"/><circle cx="1120" cy="728" r="2" fill="#fff" opacity="0.81"/><circle cx="132" cy="64" r="3" fill="#fff" opacity="0.32"/><circle cx="432" cy="108" r="3" fill="#fff" opacity="0.82"/><circle cx="952" cy="53" r="2" fill="#fff" opacity="0.67"/><circle cx="1440" cy="580" r="2" fill="#fff" opacity="0.70"/><circle cx="1260" cy="149" r="1" fill="#fff" opacity="0.37"/><circle cx="1065" cy="301" r="2" fill="#fff" opacity="0.27"/><circle cx="35" cy="521" r="2" fill="#fff" opacity="0.38"/><circle cx="102" cy="302" r="3" fill="#fff" opacity="0.67"/><circle cx="1341" cy="463" r="1" fill="#fff" opacity="0.50"/><circle cx="462" cy="723" r="3" fill="#fff" opacity="0.80"/><circle cx="1566" cy="512" r="3" fill="#fff" opacity="0.57"/><circle cx="1148" cy="211" r="2" fill="#fff" opacity="0.52"/><circle cx="103" cy="7" r="3" fill="#fff" opacity="0.26"/><circle cx="585" cy="148" r="1" fill="#fff" opacity="0.34"/><circle cx="1594" cy="318" r="3" fill="#fff" opacity="0.77"/><circle cx="403" cy="653" r="3" fill="#fff" opacity="0.46"/><circle cx="81" cy="750" r="1" fill="#fff" opacity="0.84"/><circle cx="884" cy="199" r="3" fill="#fff" opacity="0.34"/><circle cx="100" cy="2" r="3" fill="#fff" opacity="0.50"/><circle cx="1383" cy="195" r="1" fill="#fff" opacity="0.33"/><circle cx="612" cy="19" r="1" fill="#fff" opacity="0.58"/><circle cx="163" cy="751" r="1" fill="#fff" opacity="0.20"/><circle cx="978" cy="106" r="3" fill="#fff" opacity="0.68"/><circle cx="747" cy="765" r="1" fill="#fff" opacity="0.25"/><circle cx="292" cy="286" r="2" fill="#fff" opacity="0.62"/><circle cx="89" cy="155" r="3" fill="#fff" opacity="0.49"/><circle cx="1247" cy="530" r="3" fill="#fff" opacity="0.33"/><circle cx="727" cy="25" r="2" fill="#fff" opacity="0.65"/><circle cx="455" cy="151" r="3" fill="#fff" opacity="0.36"/><circle cx="190" cy="672" r="1" fill="#fff" opacity="0.38"/><circle cx="1023" cy="232" r="1" fill="#fff" opacity="0.50"/><circle cx="444" cy="298" r="2" fill="#fff" opacity="0.39"/><circle cx="1103" cy="588" r="2" fill="#fff" opacity="0.80"/><circle cx="1056" cy="287" r="2" fill="#fff" opacity="0.63"/><circle cx="1340" cy="49" r="1" fill="#fff" opacity="0.61"/><circle cx="854" cy="763" r="3" fill="#fff" opacity="0.37"/><circle cx="1321" cy="610" r="1" fill="#fff" opacity="0.48"/><circle cx="182" cy="363" r="3" fill="#fff" opacity="0.26"/><circle cx="1195" cy="839" r="2" fill="#fff" opacity="0.62"/><circle cx="240" cy="714" r="3" fill="#fff" opacity="0.83"/><circle cx="934" cy="13" r="3" fill="#fff" opacity="0.57"/><circle cx="802" cy="134" r="2" fill="#fff" opacity="0.68"/><circle cx="1542" cy="287" r="1" fill="#fff" opacity="0.29"/><circle cx="1415" cy="677" r="1" fill="#fff" opacity="0.74"/><circle cx="305" cy="627" r="1" fill="#fff" opacity="0.62"/><circle cx="372" cy="166" r="1" fill="#fff" opacity="0.75"/><circle cx="491" cy="123" r="2" fill="#fff" opacity="0.47"/><circle cx="405" cy="224" r="3" fill="#fff" opacity="0.74"/><circle cx="1425" cy="316" r="1" fill="#fff" opacity="0.75"/><circle cx="984" cy="27" r="1" fill="#fff" opacity="0.70"/><circle cx="358" cy="341" r="2" fill="#fff" opacity="0.53"/><circle cx="1108" cy="801" r="2" fill="#fff" opacity="0.79"/><circle cx="1021" cy="746" r="2" fill="#fff" opacity="0.31"/><circle cx="783" cy="829" r="3" fill="#fff" opacity="0.51"/><circle cx="920" cy="74" r="3" fill="#fff" opacity="0.66"/><circle cx="338" cy="316" r="3" fill="#fff" opacity="0.36"/><circle cx="219" cy="16" r="1" fill="#fff" opacity="0.81"/><circle cx="879" cy="77" r="1" fill="#fff" opacity="0.54"/><circle cx="643" cy="240" r="3" fill="#fff" opacity="0.34"/><circle cx="442" cy="106" r="3" fill="#fff" opacity="0.85"/><circle cx="698" cy="401" r="2" fill="#fff" opacity="0.59"/><circle cx="765" cy="624" r="1" fill="#fff" opacity="0.48"/><circle cx="664" cy="40" r="2" fill="#fff" opacity="0.41"/><circle cx="128" cy="378" r="2" fill="#fff" opacity="0.47"/><circle cx="1501" cy="318" r="2" fill="#fff" opacity="0.53"/><circle cx="654" cy="289" r="1" fill="#fff" opacity="0.23"/><circle cx="993" cy="55" r="1" fill="#fff" opacity="0.49"/><circle cx="708" cy="323" r="2" fill="#fff" opacity="0.26"/><circle cx="1210" cy="270" r="155" fill="url(#planet)"/><path d="M0 520Q400 300 800 520T1600 520" fill="none" stroke="#ffbcea" stroke-width="70" opacity=".12"/><g transform="translate(1210 270) scale(2.3)"><ellipse rx="34" ry="23" transform="rotate(-25)" fill="#edff61"/><path d="M20 -24q25 -20 32 0q-20 14 -32 0" fill="#75e8a0"/></g><ellipse cx="430" cy="230" rx="110" ry="60" fill="hsl(351,80%,65%)" opacity=".13"/><rect x="0" y="586" width="42" height="114" rx="8" fill="hsl(311,35%,23%)"/><path d="M12 596v89" stroke="hsl(351,80%,65%)" stroke-width="3" opacity=".4"/><rect x="74" y="497" width="58" height="203" rx="8" fill="hsl(311,35%,23%)"/><path d="M86 507v178" stroke="hsl(351,80%,65%)" stroke-width="3" opacity=".4"/><rect x="148" y="500" width="55" height="200" rx="8" fill="hsl(311,35%,23%)"/><path d="M160 510v175" stroke="hsl(351,80%,65%)" stroke-width="3" opacity=".4"/><rect x="222" y="429" width="51" height="271" rx="8" fill="hsl(311,35%,23%)"/><path d="M234 439v246" stroke="hsl(351,80%,65%)" stroke-width="3" opacity=".4"/><rect x="296" y="588" width="65" height="112" rx="8" fill="hsl(311,35%,23%)"/><path d="M308 598v87" stroke="hsl(351,80%,65%)" stroke-width="3" opacity=".4"/><rect x="370" y="551" width="55" height="149" rx="8" fill="hsl(311,35%,23%)"/><path d="M382 561v124" stroke="hsl(351,80%,65%)" stroke-width="3" opacity=".4"/><rect x="444" y="411" width="58" height="289" rx="8" fill="hsl(311,35%,23%)"/><path d="M456 421v264" stroke="hsl(351,80%,65%)" stroke-width="3" opacity=".4"/><rect x="518" y="609" width="50" height="91" rx="8" fill="hsl(311,35%,23%)"/><path d="M530 619v66" stroke="hsl(351,80%,65%)" stroke-width="3" opacity=".4"/><rect x="592" y="535" width="67" height="165" rx="8" fill="hsl(311,35%,23%)"/><path d="M604 545v140" stroke="hsl(351,80%,65%)" stroke-width="3" opacity=".4"/><rect x="666" y="484" width="42" height="216" rx="8" fill="hsl(311,35%,23%)"/><path d="M678 494v191" stroke="hsl(351,80%,65%)" stroke-width="3" opacity=".4"/><rect x="740" y="482" width="69" height="218" rx="8" fill="hsl(311,35%,23%)"/><path d="M752 492v193" stroke="hsl(351,80%,65%)" stroke-width="3" opacity=".4"/><rect x="814" y="475" width="55" height="225" rx="8" fill="hsl(311,35%,23%)"/><path d="M826 485v200" stroke="hsl(351,80%,65%)" stroke-width="3" opacity=".4"/><rect x="888" y="519" width="44" height="181" rx="8" fill="hsl(311,35%,23%)"/><path d="M900 529v156" stroke="hsl(351,80%,65%)" stroke-width="3" opacity=".4"/><rect x="962" y="532" width="48" height="168" rx="8" fill="hsl(311,35%,23%)"/><path d="M974 542v143" stroke="hsl(351,80%,65%)" stroke-width="3" opacity=".4"/><rect x="1036" y="515" width="53" height="185" rx="8" fill="hsl(311,35%,23%)"/><path d="M1048 525v160" stroke="hsl(351,80%,65%)" stroke-width="3" opacity=".4"/><rect x="1110" y="441" width="56" height="259" rx="8" fill="hsl(311,35%,23%)"/><path d="M1122 451v234" stroke="hsl(351,80%,65%)" stroke-width="3" opacity=".4"/><rect x="1184" y="510" width="52" height="190" rx="8" fill="hsl(311,35%,23%)"/><path d="M1196 520v165" stroke="hsl(351,80%,65%)" stroke-width="3" opacity=".4"/><rect x="1258" y="514" width="63" height="186" rx="8" fill="hsl(311,35%,23%)"/><path d="M1270 524v161" stroke="hsl(351,80%,65%)" stroke-width="3" opacity=".4"/><rect x="1332" y="577" width="51" height="123" rx="8" fill="hsl(311,35%,23%)"/><path d="M1344 587v98" stroke="hsl(351,80%,65%)" stroke-width="3" opacity=".4"/><rect x="1406" y="584" width="36" height="116" rx="8" fill="hsl(311,35%,23%)"/><path d="M1418 594v91" stroke="hsl(351,80%,65%)" stroke-width="3" opacity=".4"/><rect x="1480" y="537" width="47" height="163" rx="8" fill="hsl(311,35%,23%)"/><path d="M1492 547v138" stroke="hsl(351,80%,65%)" stroke-width="3" opacity=".4"/><rect x="1554" y="571" width="67" height="129" rx="8" fill="hsl(311,35%,23%)"/><path d="M1566 581v104" stroke="hsl(351,80%,65%)" stroke-width="3" opacity=".4"/><path d="M0 740Q500 650 950 760T1600 720V900H0Z" fill="hsl(311,30%,16%)"/><path d="M0 786Q700 695 1600 795" fill="none" stroke="hsl(351,80%,65%)" stroke-width="2" opacity=".3"/><g transform="translate(180 549)"><ellipse cy="120" rx="108" ry="22" fill="hsl(351,80%,65%)" opacity=".2"/><rect x="-78" y="-16" width="156" height="115" rx="18" fill="#28384d" stroke="hsl(351,80%,65%)" stroke-width="3"/><path d="M-94 -16L-54 -70H54L94 -16Z" fill="hsl(351,80%,65%)"/><rect x="-53" y="20" width="106" height="44" rx="8" fill="#a8eee4"/><g transform="translate(0 -40) scale(.65)"><ellipse rx="34" ry="23" transform="rotate(-25)" fill="#edff61"/><path d="M20 -24q25 -20 32 0q-20 14 -32 0" fill="#75e8a0"/></g><path d="M-100 100h200" stroke="#e9fd75" stroke-width="7"/><circle cx="-60" cy="122" r="8" fill="#f3ff98"/><circle cx="60" cy="122" r="8" fill="#f3ff98"/></g><g transform="translate(370 562)"><ellipse cy="120" rx="108" ry="22" fill="hsl(351,80%,65%)" opacity=".2"/><rect x="-78" y="-16" width="156" height="115" rx="18" fill="#28384d" stroke="hsl(351,80%,65%)" stroke-width="3"/><path d="M-94 -16L-54 -70H54L94 -16Z" fill="hsl(351,80%,65%)"/><rect x="-53" y="20" width="106" height="44" rx="8" fill="#a8eee4"/><g transform="translate(0 -40) scale(.65)"><ellipse rx="34" ry="23" transform="rotate(-25)" fill="#edff61"/><path d="M20 -24q25 -20 32 0q-20 14 -32 0" fill="#75e8a0"/></g><path d="M-100 100h200" stroke="#e9fd75" stroke-width="7"/><circle cx="-60" cy="122" r="8" fill="#f3ff98"/><circle cx="60" cy="122" r="8" fill="#f3ff98"/></g><g transform="translate(560 517)"><ellipse cy="120" rx="108" ry="22" fill="hsl(351,80%,65%)" opacity=".2"/><rect x="-78" y="-16" width="156" height="115" rx="18" fill="#28384d" stroke="hsl(351,80%,65%)" stroke-width="3"/><path d="M-94 -16L-54 -70H54L94 -16Z" fill="hsl(351,80%,65%)"/><rect x="-53" y="20" width="106" height="44" rx="8" fill="#a8eee4"/><g transform="translate(0 -40) scale(.65)"><ellipse rx="34" ry="23" transform="rotate(-25)" fill="#edff61"/><path d="M20 -24q25 -20 32 0q-20 14 -32 0" fill="#75e8a0"/></g><path d="M-100 100h200" stroke="#e9fd75" stroke-width="7"/><circle cx="-60" cy="122" r="8" fill="#f3ff98"/><circle cx="60" cy="122" r="8" fill="#f3ff98"/></g><g transform="translate(750 457)"><ellipse cy="120" rx="108" ry="22" fill="hsl(351,80%,65%)" opacity=".2"/><rect x="-78" y="-16" width="156" height="115" rx="18" fill="#28384d" stroke="hsl(351,80%,65%)" stroke-width="3"/><path d="M-94 -16L-54 -70H54L94 -16Z" fill="hsl(351,80%,65%)"/><rect x="-53" y="20" width="106" height="44" rx="8" fill="#a8eee4"/><g transform="translate(0 -40) scale(.65)"><ellipse rx="34" ry="23" transform="rotate(-25)" fill="#edff61"/><path d="M20 -24q25 -20 32 0q-20 14 -32 0" fill="#75e8a0"/></g><path d="M-100 100h200" stroke="#e9fd75" stroke-width="7"/><circle cx="-60" cy="122" r="8" fill="#f3ff98"/><circle cx="60" cy="122" r="8" fill="#f3ff98"/></g><g transform="translate(940 436)"><ellipse cy="120" rx="108" ry="22" fill="hsl(351,80%,65%)" opacity=".2"/><rect x="-78" y="-16" width="156" height="115" rx="18" fill="#28384d" stroke="hsl(351,80%,65%)" stroke-width="3"/><path d="M-94 -16L-54 -70H54L94 -16Z" fill="hsl(351,80%,65%)"/><rect x="-53" y="20" width="106" height="44" rx="8" fill="#a8eee4"/><g transform="translate(0 -40) scale(.65)"><ellipse rx="34" ry="23" transform="rotate(-25)" fill="#edff61"/><path d="M20 -24q25 -20 32 0q-20 14 -32 0" fill="#75e8a0"/></g><path d="M-100 100h200" stroke="#e9fd75" stroke-width="7"/><circle cx="-60" cy="122" r="8" fill="#f3ff98"/><circle cx="60" cy="122" r="8" fill="#f3ff98"/></g><g transform="translate(1130 474)"><ellipse cy="120" rx="108" ry="22" fill="hsl(351,80%,65%)" opacity=".2"/><rect x="-78" y="-16" width="156" height="115" rx="18" fill="#28384d" stroke="hsl(351,80%,65%)" stroke-width="3"/><path d="M-94 -16L-54 -70H54L94 -16Z" fill="hsl(351,80%,65%)"/><rect x="-53" y="20" width="106" height="44" rx="8" fill="#a8eee4"/><g transform="translate(0 -40) scale(.65)"><ellipse rx="34" ry="23" transform="rotate(-25)" fill="#edff61"/><path d="M20 -24q25 -20 32 0q-20 14 -32 0" fill="#75e8a0"/></g><path d="M-100 100h200" stroke="#e9fd75" stroke-width="7"/><circle cx="-60" cy="122" r="8" fill="#f3ff98"/><circle cx="60" cy="122" r="8" fill="#f3ff98"/></g><g transform="translate(810 345)"><ellipse rx="95" ry="125" fill="none" stroke="hsl(351,80%,65%)" stroke-width="16" opacity=".5"/><ellipse rx="72" ry="107" fill="none" stroke="#eaff8b" stroke-width="4"/><ellipse rx="34" ry="23" transform="rotate(-25)" fill="#edff61"/><path d="M20 -24q25 -20 32 0q-20 14 -32 0" fill="#75e8a0"/></g></svg>