<svg xmlns="http://www.w3.org/2000/svg" viewBox="0 0 1600 900"><defs><radialGradient id="sky"><stop stop-color="hsl(287,50%,30%)"/><stop offset="1" stop-color="hsl(287,55%,12%)"/></radialGradient><radialGradient id="planet"><stop stop-color="#eeff95"/><stop offset="1" stop-color="hsl(327,80%,65%)"/></radialGradient></defs><rect width="1600" height="900" fill="url(#sky)"/><circle cx="78" cy="292" r="3" fill="#fff" opacity="0.70"/><circle cx="947" cy="378" r="3" fill="#fff" opacity="0.65"/><circle cx="197" cy="464" r="3" fill="#fff" opacity="0.52"/><circle cx="39" cy="526" r="2" fill="#fff" opacity="0.57"/><circle cx="1278" cy="560" r="2" fill="#fff" opacity="0.46"/><circle cx="118" cy="109" r="1" fill="#fff" opacity="0.44"/><circle cx="196" cy="164" r="3" fill="#fff" opacity="0.74"/><circle cx="263" cy="790" r="2" fill="#fff" opacity="0.59"/><circle cx="1037" cy="278" r="3" fill="#fff" opacity="0.32"/><circle cx="130" cy="50" r="3" fill="#fff" opacity="0.24"/><circle cx="125" cy="169" r="2" fill="#fff" opacity="0.38"/><circle cx="157" cy="534" r="3" fill="#fff" opacity="0.27"/><circle cx="1196" cy="669" r="3" fill="#fff" opacity="0.64"/><circle cx="192" cy="637" r="2" fill="#fff" opacity="0.71"/><circle cx="1481" cy="339" r="2" fill="#fff" opacity="0.54"/><circle cx="1435" cy="449" r="1" fill="#fff" opacity="0.28"/><circle cx="164" cy="799" r="2" fill="#fff" opacity="0.23"/><circle cx="1211" cy="274" r="2" fill="#fff" opacity="0.67"/><circle cx="1376" cy="618" r="1" fill="#fff" opacity="0.83"/><circle cx="1130" cy="678" r="1" fill="#fff" opacity="0.39"/><circle cx="1595" cy="746" r="2" fill="#fff" opacity="0.66"/><circle cx="84" cy="484" r="2" fill="#fff" opacity="0.59"/><circle cx="171" cy="366" r="1" fill="#fff" opacity="0.62"/><circle cx="1361" cy="748" r="1" fill="#fff" opacity="0.57"/><circle cx="629" cy="111" r="3" fill="#fff" opacity="0.55"/><circle cx="907" cy="601" r="1" fill="#fff" opacity="0.30"/><circle cx="216" cy="810" r="1" fill="#fff" opacity="0.28"/><circle cx="34" cy="791" r="2" fill="#fff" opacity="0.28"/><circle cx="1090" cy="510" r="2" fill="#fff" opacity="0.81"/><circle cx="1439" cy="467" r="2" fill="#fff" opacity="0.76"/><circle cx="789" cy="89" r="3" fill="#fff" opacity="0.22"/><circle cx="1469" cy="211" r="3" fill="#fff" opacity="0.46"/><circle cx="1402" cy="589" r="2" fill="#fff" opacity="0.37"/><circle cx="1200" cy="418" r="2" fill="#fff" opacity="0.46"/><circle cx="106" cy="190" r="3" fill="#fff" opacity="0.32"/><circle cx="384" cy="723" r="3" fill="#fff" opacity="0.83"/><circle cx="1371" cy="239" r="2" fill="#fff" opacity="0.34"/><circle cx="384" cy="795" r="1" fill="#fff" opacity="0.84"/><circle cx="796" cy="230" r="1" fill="#fff" opacity="0.50"/><circle cx="125" cy="98" r="1" fill="#fff" opacity="0.22"/><circle cx="1255" cy="523" r="3" fill="#fff" opacity="0.76"/><circle cx="228" cy="592" r="2" fill="#fff" opacity="0.37"/><circle cx="266" cy="459" r="2" fill="#fff" opacity="0.30"/><circle cx="12" cy="111" r="3" fill="#fff" opacity="0.34"/><circle cx="1159" cy="637" r="2" fill="#fff" opacity="0.33"/><circle cx="870" cy="108" r="1" fill="#fff" opacity="0.32"/><circle cx="238" cy="336" r="2" fill="#fff" opacity="0.37"/><circle cx="274" cy="553" r="3" fill="#fff" opacity="0.30"/><circle cx="496" cy="204" r="1" fill="#fff" opacity="0.23"/><circle cx="549" cy="490" r="3" fill="#fff" opacity="0.81"/><circle cx="1326" cy="813" r="1" fill="#fff" opacity="0.51"/><circle cx="695" cy="145" r="2" fill="#fff" opacity="0.35"/><circle cx="1494" cy="212" r="2" fill="#fff" opacity="0.83"/><circle cx="307" cy="292" r="3" fill="#fff" opacity="0.63"/><circle cx="612" cy="740" r="2" fill="#fff" opacity="0.84"/><circle cx="630" cy="770" r="3" fill="#fff" opacity="0.56"/><circle cx="1124" cy="624" r="2" fill="#fff" opacity="0.67"/><circle cx="1060" cy="834" r="3" fill="#fff" opacity="0.25"/><circle cx="1257" cy="716" r="3" fill="#fff" opacity="0.67"/><circle cx="315" cy="620" r="3" fill="#fff" opacity="0.22"/><circle cx="221" cy="818" r="3" fill="#fff" opacity="0.65"/><circle cx="1576" cy="668" r="1" fill="#fff" opacity="0.32"/><circle cx="404" cy="625" r="3" fill="#fff" opacity="0.73"/><circle cx="123" cy="262" r="1" fill="#fff" opacity="0.52"/><circle cx="946" cy="429" r="2" fill="#fff" opacity="0.24"/><circle cx="938" cy="453" r="3" fill="#fff" opacity="0.37"/><circle cx="285" cy="117" r="2" fill="#fff" opacity="0.43"/><circle cx="747" cy="103" r="2" fill="#fff" opacity="0.65"/><circle cx="916" cy="334" r="2" fill="#fff" opacity="0.74"/><circle cx="431" cy="242" r="2" fill="#fff" opacity="0.32"/><circle cx="617" cy="444" r="1" fill="#fff" opacity="0.74"/><circle cx="601" cy="539" r="3" fill="#fff" opacity="0.23"/><circle cx="371" cy="310" r="1" fill="#fff" opacity="0.71"/><circle cx="437" cy="143" r="1" fill="#fff" opacity="0.65"/><circle cx="1314" cy="602" r="3" fill="#fff" opacity="0.67"/><circle cx="388" cy="267" r="2" fill="#fff" opacity="0.45"/><circle cx="1087" cy="190" r="2" fill="#fff" opacity="0.74"/><circle cx="217" cy="764" r="3" fill="#fff" opacity="0.44"/><circle cx="211" cy="446" r="2" fill="#fff" opacity="0.53"/><circle cx="521" cy="97" r="1" fill="#fff" opacity="0.57"/><circle cx="1060" cy="402" r="1" fill="#fff" opacity="0.44"/><circle cx="899" cy="646" r="2" fill="#fff" opacity="0.57"/><circle cx="1111" cy="663" r="1" fill="#fff" opacity="0.21"/><circle cx="1469" cy="498" r="2" fill="#fff" opacity="0.73"/><circle cx="588" cy="110" r="3" fill="#fff" opacity="0.67"/><circle cx="917" cy="715" r="1" fill="#fff" opacity="0.64"/><circle cx="1113" cy="436" r="2" fill="#fff" opacity="0.30"/><circle cx="381" cy="367" r="1" fill="#fff" opacity="0.25"/><circle cx="677" cy="43" r="1" fill="#fff" opacity="0.78"/><circle cx="658" cy="189" r="1" fill="#fff" opacity="0.61"/><circle cx="419" cy="332" r="1" fill="#fff" opacity="0.47"/><circle cx="120" cy="11" r="3" fill="#fff" opacity="0.65"/><circle cx="448" cy="106" r="1" fill="#fff" opacity="0.60"/><circle cx="500" cy="43" r="2" fill="#fff" opacity="0.23"/><circle cx="227" cy="101" r="2" fill="#fff" opacity="0.22"/><circle cx="1261" cy="513" r="3" fill="#fff" opacity="0.75"/><circle cx="1345" cy="693" r="1" fill="#fff" opacity="0.37"/><circle cx="814" cy="622" r="1" fill="#fff" opacity="0.71"/><circle cx="1280" cy="728" r="2" fill="#fff" opacity="0.52"/><circle cx="1174" cy="420" r="3" fill="#fff" opacity="0.66"/><circle cx="832" cy="679" r="2" fill="#fff" opacity="0.50"/><circle cx="1209" cy="755" r="1" fill="#fff" opacity="0.49"/><circle cx="1303" cy="496" r="1" fill="#fff" opacity="0.54"/><circle cx="316" cy="450" r="1" fill="#fff" opacity="0.79"/><circle cx="365" cy="786" r="1" fill="#fff" opacity="0.25"/><circle cx="158" cy="472" r="1" fill="#fff" opacity="0.28"/><circle cx="1288" cy="842" r="2" fill="#fff" opacity="0.83"/><circle cx="1342" cy="514" r="3" fill="#fff" opacity="0.46"/><circle cx="1016" cy="781" r="1" fill="#fff" opacity="0.36"/><circle cx="749" cy="104" r="2" fill="#fff" opacity="0.26"/><circle cx="22" cy="535" r="3" fill="#fff" opacity="0.25"/><circle cx="233" cy="442" r="1" fill="#fff" opacity="0.64"/><circle cx="414" cy="753" r="3" fill="#fff" opacity="0.27"/><circle cx="1137" cy="440" r="3" fill="#fff" opacity="0.84"/><circle cx="731" cy="717" r="3" fill="#fff" opacity="0.41"/><circle cx="579" cy="682" r="2" fill="#fff" opacity="0.55"/><circle cx="897" cy="740" r="3" fill="#fff" opacity="0.26"/><circle cx="1254" cy="10" r="1" fill="#fff" opacity="0.21"/><circle cx="554" cy="258" r="3" fill="#fff" opacity="0.39"/><circle cx="729" cy="461" r="2" fill="#fff" opacity="0.22"/><circle cx="1319" cy="407" r="2" fill="#fff" opacity="0.71"/><circle cx="1545" cy="320" r="1" fill="#fff" opacity="0.43"/><circle cx="1515" cy="221" r="3" fill="#fff" opacity="0.28"/><circle cx="677" cy="368" r="3" fill="#fff" opacity="0.49"/><circle cx="224" cy="507" r="2" fill="#fff" opacity="0.53"/><circle cx="382" cy="111" r="2" fill="#fff" opacity="0.48"/><circle cx="980" cy="177" r="1" fill="#fff" opacity="0.64"/><circle cx="1477" cy="272" r="2" fill="#fff" opacity="0.52"/><circle cx="833" cy="104" r="2" fill="#fff" opacity="0.41"/><circle cx="221" cy="815" r="3" fill="#fff" opacity="0.53"/><circle cx="1446" cy="448" r="3" fill="#fff" opacity="0.79"/><circle cx="1499" cy="263" r="3" fill="#fff" opacity="0.72"/><circle cx="791" cy="799" r="2" fill="#fff" opacity="0.76"/><circle cx="72" cy="21" r="3" fill="#fff" opacity="0.70"/><circle cx="346" cy="297" r="1" fill="#fff" opacity="0.68"/><circle cx="1277" cy="666" r="2" fill="#fff" opacity="0.30"/><circle cx="1226" cy="524" r="2" fill="#fff" opacity="0.80"/><circle cx="1186" cy="7" r="2" fill="#fff" opacity="0.79"/><circle cx="511" cy="569" r="2" fill="#fff" opacity="0.40"/><circle cx="1483" cy="726" r="1" fill="#fff" opacity="0.57"/><circle cx="1210" cy="270" r="155" fill="url(#planet)"/><path d="M0 520Q400 300 800 520T1600 520" fill="none" stroke="#ffbcea" stroke-width="70" opacity=".12"/><g transform="translate(1210 270) scale(2.3)"><ellipse rx="34" ry="23" transform="rotate(-25)" fill="#edff61"/><path d="M20 -24q25 -20 32 0q-20 14 -32 0" fill="#75e8a0"/></g><ellipse cx="430" cy="230" rx="110" ry="60" fill="hsl(327,80%,65%)" opacity=".13"/><rect x="0" y="492" width="46" height="208" rx="8" fill="hsl(287,35%,23%)"/><path d="M12 502v183" stroke="hsl(327,80%,65%)" stroke-width="3" opacity=".4"/><rect x="74" y="605" width="54" height="95" rx="8" fill="hsl(287,35%,23%)"/><path d="M86 615v70" stroke="hsl(327,80%,65%)" stroke-width="3" opacity=".4"/><rect x="148" y="438" width="43" height="262" rx="8" fill="hsl(287,35%,23%)"/><path d="M160 448v237" stroke="hsl(327,80%,65%)" stroke-width="3" opacity=".4"/><rect x="222" y="590" width="63" height="110" rx="8" fill="hsl(287,35%,23%)"/><path d="M234 600v85" stroke="hsl(327,80%,65%)" stroke-width="3" opacity=".4"/><rect x="296" y="430" width="56" height="270" rx="8" fill="hsl(287,35%,23%)"/><path d="M308 440v245" stroke="hsl(327,80%,65%)" stroke-width="3" opacity=".4"/><rect x="370" y="555" width="44" height="145" rx="8" fill="hsl(287,35%,23%)"/><path d="M382 565v120" stroke="hsl(327,80%,65%)" stroke-width="3" opacity=".4"/><rect x="444" y="453" width="49" height="247" rx="8" fill="hsl(287,35%,23%)"/><path d="M456 463v222" stroke="hsl(327,80%,65%)" stroke-width="3" opacity=".4"/><rect x="518" y="613" width="40" height="87" rx="8" fill="hsl(287,35%,23%)"/><path d="M530 623v62" stroke="hsl(327,80%,65%)" stroke-width="3" opacity=".4"/><rect x="592" y="552" width="51" height="148" rx="8" fill="hsl(287,35%,23%)"/><path d="M604 562v123" stroke="hsl(327,80%,65%)" stroke-width="3" opacity=".4"/><rect x="666" y="576" width="63" height="124" rx="8" fill="hsl(287,35%,23%)"/><path d="M678 586v99" stroke="hsl(327,80%,65%)" stroke-width="3" opacity=".4"/><rect x="740" y="492" width="37" height="208" rx="8" fill="hsl(287,35%,23%)"/><path d="M752 502v183" stroke="hsl(327,80%,65%)" stroke-width="3" opacity=".4"/><rect x="814" y="578" width="40" height="122" rx="8" fill="hsl(287,35%,23%)"/><path d="M826 588v97" stroke="hsl(327,80%,65%)" stroke-width="3" opacity=".4"/><rect x="888" y="523" width="54" height="177" rx="8" fill="hsl(287,35%,23%)"/><path d="M900 533v152" stroke="hsl(327,80%,65%)" stroke-width="3" opacity=".4"/><rect x="962" y="481" width="43" height="219" rx="8" fill="hsl(287,35%,23%)"/><path d="M974 491v194" stroke="hsl(327,80%,65%)" stroke-width="3" opacity=".4"/><rect x="1036" y="486" width="58" height="214" rx="8" fill="hsl(287,35%,23%)"/><path d="M1048 496v189" stroke="hsl(327,80%,65%)" stroke-width="3" opacity=".4"/><rect x="1110" y="428" width="39" height="272" rx="8" fill="hsl(287,35%,23%)"/><path d="M1122 438v247" stroke="hsl(327,80%,65%)" stroke-width="3" opacity=".4"/><rect x="1184" y="525" width="63" height="175" rx="8" fill="hsl(287,35%,23%)"/><path d="M1196 535v150" stroke="hsl(327,80%,65%)" stroke-width="3" opacity=".4"/><rect x="1258" y="448" width="58" height="252" rx="8" fill="hsl(287,35%,23%)"/><path d="M1270 458v227" stroke="hsl(327,80%,65%)" stroke-width="3" opacity=".4"/><rect x="1332" y="600" width="65" height="100" rx="8" fill="hsl(287,35%,23%)"/><path d="M1344 610v75" stroke="hsl(327,80%,65%)" stroke-width="3" opacity=".4"/><rect x="1406" y="469" width="39" height="231" rx="8" fill="hsl(287,35%,23%)"/><path d="M1418 479v206" stroke="hsl(327,80%,65%)" stroke-width="3" opacity=".4"/><rect x="1480" y="427" width="42" height="273" rx="8" fill="hsl(287,35%,23%)"/><path d="M1492 437v248" stroke="hsl(327,80%,65%)" stroke-width="3" opacity=".4"/><rect x="1554" y="581" width="43" height="119" rx="8" fill="hsl(287,35%,23%)"/><path d="M1566 591v94" stroke="hsl(327,80%,65%)" stroke-width="3" opacity=".4"/><path d="M0 740Q500 650 950 760T1600 720V900H0Z" fill="hsl(287,30%,16%)"/><path d="M0 786Q700 695 1600 795" fill="none" stroke="hsl(327,80%,65%)" stroke-width="2" opacity=".3"/><g transform="translate(180 559)"><ellipse cy="120" rx="108" ry="22" fill="hsl(327,80%,65%)" opacity=".2"/><rect x="-78" y="-16" width="156" height="115" rx="18" fill="#28384d" stroke="hsl(327,80%,65%)" stroke-width="3"/><path d="M-94 -16L-54 -70H54L94 -16Z" fill="hsl(327,80%,65%)"/><rect x="-53" y="20" width="106" height="44" rx="8" fill="#a8eee4"/><g transform="translate(0 -40) scale(.65)"><ellipse rx="34" ry="23" transform="rotate(-25)" fill="#edff61"/><path d="M20 -24q25 -20 32 0q-20 14 -32 0" fill="#75e8a0"/></g><path d="M-100 100h200" stroke="#e9fd75" stroke-width="7"/><circle cx="-60" cy="122" r="8" fill="#f3ff98"/><circle cx="60" cy="122" r="8" fill="#f3ff98"/></g><g transform="translate(370 509)"><ellipse cy="120" rx="108" ry="22" fill="hsl(327,80%,65%)" opacity=".2"/><rect x="-78" y="-16" width="156" height="115" rx="18" fill="#28384d" stroke="hsl(327,80%,65%)" stroke-width="3"/><path d="M-94 -16L-54 -70H54L94 -16Z" fill="hsl(327,80%,65%)"/><rect x="-53" y="20" width="106" height="44" rx="8" fill="#a8eee4"/><g transform="translate(0 -40) scale(.65)"><ellipse rx="34" ry="23" transform="rotate(-25)" fill="#edff61"/><path d="M20 -24q25 -20 32 0q-20 14 -32 0" fill="#75e8a0"/></g><path d="M-100 100h200" stroke="#e9fd75" stroke-width="7"/><circle cx="-60" cy="122" r="8" fill="#f3ff98"/><circle cx="60" cy="122" r="8" fill="#f3ff98"/></g><g transform="translate(560 451)"><ellipse cy="120" rx="108" ry="22" fill="hsl(327,80%,65%)" opacity=".2"/><rect x="-78" y="-16" width="156" height="115" rx="18" fill="#28384d" stroke="hsl(327,80%,65%)" stroke-width="3"/><path d="M-94 -16L-54 -70H54L94 -16Z" fill="hsl(327,80%,65%)"/><rect x="-53" y="20" width="106" height="44" rx="8" fill="#a8eee4"/><g transform="translate(0 -40) scale(.65)"><ellipse rx="34" ry="23" transform="rotate(-25)" fill="#edff61"/><path d="M20 -24q25 -20 32 0q-20 14 -32 0" fill="#75e8a0"/></g><path d="M-100 100h200" stroke="#e9fd75" stroke-width="7"/><circle cx="-60" cy="122" r="8" fill="#f3ff98"/><circle cx="60" cy="122" r="8" fill="#f3ff98"/></g><g transform="translate(750 438)"><ellipse cy="120" rx="108" ry="22" fill="hsl(327,80%,65%)" opacity=".2"/><rect x="-78" y="-16" width="156" height="115" rx="18" fill="#28384d" stroke="hsl(327,80%,65%)" stroke-width="3"/><path d="M-94 -16L-54 -70H54L94 -16Z" fill="hsl(327,80%,65%)"/><rect x="-53" y="20" width="106" height="44" rx="8" fill="#a8eee4"/><g transform="translate(0 -40) scale(.65)"><ellipse rx="34" ry="23" transform="rotate(-25)" fill="#edff61"/><path d="M20 -24q25 -20 32 0q-20 14 -32 0" fill="#75e8a0"/></g><path d="M-100 100h200" stroke="#e9fd75" stroke-width="7"/><circle cx="-60" cy="122" r="8" fill="#f3ff98"/><circle cx="60" cy="122" r="8" fill="#f3ff98"/></g><g transform="translate(940 482)"><ellipse cy="120" rx="108" ry="22" fill="hsl(327,80%,65%)" opacity=".2"/><rect x="-78" y="-16" width="156" height="115" rx="18" fill="#28384d" stroke="hsl(327,80%,65%)" stroke-width="3"/><path d="M-94 -16L-54 -70H54L94 -16Z" fill="hsl(327,80%,65%)"/><rect x="-53" y="20" width="106" height="44" rx="8" fill="#a8eee4"/><g transform="translate(0 -40) scale(.65)"><ellipse rx="34" ry="23" transform="rotate(-25)" fill="#edff61"/><path d="M20 -24q25 -20 32 0q-20 14 -32 0" fill="#75e8a0"/></g><path d="M-100 100h200" stroke="#e9fd75" stroke-width="7"/><circle cx="-60" cy="122" r="8" fill="#f3ff98"/><circle cx="60" cy="122" r="8" fill="#f3ff98"/></g><g transform="translate(1130 542)"><ellipse cy="120" rx="108" ry="22" fill="hsl(327,80%,65%)" opacity=".2"/><rect x="-78" y="-16" width="156" height="115" rx="18" fill="#28384d" stroke="hsl(327,80%,65%)" stroke-width="3"/><path d="M-94 -16L-54 -70H54L94 -16Z" fill="hsl(327,80%,65%)"/><rect x="-53" y="20" width="106" height="44" rx="8" fill="#a8eee4"/><g transform="translate(0 -40) scale(.65)"><ellipse rx="34" ry="23" transform="rotate(-25)" fill="#edff61"/><path d="M20 -24q25 -20 32 0q-20 14 -32 0" fill="#75e8a0"/></g><path d="M-100 100h200" stroke="#e9fd75" stroke-width="7"/><circle cx="-60" cy="122" r="8" fill="#f3ff98"/><circle cx="60" cy="122" r="8" fill="#f3ff98"/></g><g transform="translate(810 345)"><ellipse rx="95" ry="125" fill="none" stroke="hsl(327,80%,65%)" stroke-width="16" opacity=".5"/><ellipse rx="72" ry="107" fill="none" stroke="#eaff8b" stroke-width="4"/><ellipse rx="34" ry="23" transform="rotate(-25)" fill="#edff61"/><path d="M20 -24q25 -20 32 0q-20 14 -32 0" fill="#75e8a0"/></g></svg>