<svg xmlns="http://www.w3.org/2000/svg" viewBox="0 0 1600 900"><defs><radialGradient id="sky"><stop stop-color="hsl(20,50%,30%)"/><stop offset="1" stop-color="hsl(20,55%,12%)"/></radialGradient><radialGradient id="planet"><stop stop-color="#eeff95"/><stop offset="1" stop-color="hsl(60,80%,65%)"/></radialGradient></defs><rect width="1600" height="900" fill="url(#sky)"/><circle cx="156" cy="409" r="1" fill="#fff" opacity="0.58"/><circle cx="468" cy="649" r="3" fill="#fff" opacity="0.30"/><circle cx="1101" cy="821" r="1" fill="#fff" opacity="0.22"/><circle cx="655" cy="647" r="1" fill="#fff" opacity="0.75"/><circle cx="277" cy="561" r="2" fill="#fff" opacity="0.54"/><circle cx="1460" cy="780" r="1" fill="#fff" opacity="0.46"/><circle cx="1444" cy="490" r="2" fill="#fff" opacity="0.30"/><circle cx="953" cy="76" r="2" fill="#fff" opacity="0.69"/><circle cx="1114" cy="634" r="1" fill="#fff" opacity="0.48"/><circle cx="689" cy="518" r="2" fill="#fff" opacity="0.71"/><circle cx="563" cy="156" r="1" fill="#fff" opacity="0.59"/><circle cx="141" cy="623" r="2" fill="#fff" opacity="0.50"/><circle cx="831" cy="188" r="2" fill="#fff" opacity="0.40"/><circle cx="1583" cy="794" r="1" fill="#fff" opacity="0.74"/><circle cx="1194" cy="254" r="3" fill="#fff" opacity="0.67"/><circle cx="1444" cy="692" r="2" fill="#fff" opacity="0.24"/><circle cx="581" cy="831" r="1" fill="#fff" opacity="0.44"/><circle cx="374" cy="374" r="3" fill="#fff" opacity="0.69"/><circle cx="1164" cy="652" r="3" fill="#fff" opacity="0.74"/><circle cx="1474" cy="555" r="1" fill="#fff" opacity="0.24"/><circle cx="206" cy="759" r="2" fill="#fff" opacity="0.31"/><circle cx="2" cy="689" r="3" fill="#fff" opacity="0.78"/><circle cx="616" cy="413" r="3" fill="#fff" opacity="0.63"/><circle cx="47" cy="529" r="3" fill="#fff" opacity="0.67"/><circle cx="404" cy="793" r="1" fill="#fff" opacity="0.44"/><circle cx="175" cy="77" r="2" fill="#fff" opacity="0.49"/><circle cx="364" cy="139" r="2" fill="#fff" opacity="0.55"/><circle cx="572" cy="745" r="3" fill="#fff" opacity="0.51"/><circle cx="1443" cy="152" r="2" fill="#fff" opacity="0.63"/><circle cx="777" cy="135" r="2" fill="#fff" opacity="0.23"/><circle cx="108" cy="203" r="1" fill="#fff" opacity="0.45"/><circle cx="654" cy="283" r="3" fill="#fff" opacity="0.60"/><circle cx="1045" cy="322" r="1" fill="#fff" opacity="0.46"/><circle cx="557" cy="398" r="2" fill="#fff" opacity="0.40"/><circle cx="1138" cy="47" r="1" fill="#fff" opacity="0.20"/><circle cx="1263" cy="336" r="3" fill="#fff" opacity="0.45"/><circle cx="1535" cy="58" r="3" fill="#fff" opacity="0.85"/><circle cx="1075" cy="501" r="1" fill="#fff" opacity="0.66"/><circle cx="679" cy="300" r="3" fill="#fff" opacity="0.48"/><circle cx="27" cy="837" r="1" fill="#fff" opacity="0.29"/><circle cx="1239" cy="612" r="3" fill="#fff" opacity="0.33"/><circle cx="763" cy="302" r="1" fill="#fff" opacity="0.64"/><circle cx="37" cy="672" r="3" fill="#fff" opacity="0.68"/><circle cx="1469" cy="406" r="1" fill="#fff" opacity="0.60"/><circle cx="1553" cy="558" r="1" fill="#fff" opacity="0.59"/><circle cx="1514" cy="671" r="1" fill="#fff" opacity="0.47"/><circle cx="301" cy="219" r="1" fill="#fff" opacity="0.42"/><circle cx="318" cy="725" r="2" fill="#fff" opacity="0.85"/><circle cx="798" cy="641" r="1" fill="#fff" opacity="0.39"/><circle cx="243" cy="187" r="2" fill="#fff" opacity="0.35"/><circle cx="1568" cy="302" r="2" fill="#fff" opacity="0.85"/><circle cx="1210" cy="765" r="3" fill="#fff" opacity="0.62"/><circle cx="170" cy="502" r="3" fill="#fff" opacity="0.51"/><circle cx="554" cy="605" r="1" fill="#fff" opacity="0.61"/><circle cx="851" cy="492" r="3" fill="#fff" opacity="0.48"/><circle cx="1085" cy="443" r="1" fill="#fff" opacity="0.76"/><circle cx="1160" cy="814" r="1" fill="#fff" opacity="0.81"/><circle cx="884" cy="159" r="1" fill="#fff" opacity="0.71"/><circle cx="130" cy="807" r="2" fill="#fff" opacity="0.23"/><circle cx="1226" cy="683" r="1" fill="#fff" opacity="0.32"/><circle cx="668" cy="108" r="3" fill="#fff" opacity="0.23"/><circle cx="1176" cy="210" r="2" fill="#fff" opacity="0.44"/><circle cx="578" cy="636" r="2" fill="#fff" opacity="0.71"/><circle cx="947" cy="151" r="1" fill="#fff" opacity="0.41"/><circle cx="857" cy="322" r="2" fill="#fff" opacity="0.43"/><circle cx="345" cy="357" r="3" fill="#fff" opacity="0.20"/><circle cx="503" cy="702" r="3" fill="#fff" opacity="0.73"/><circle cx="1293" cy="49" r="1" fill="#fff" opacity="0.42"/><circle cx="179" cy="143" r="2" fill="#fff" opacity="0.26"/><circle cx="925" cy="241" r="1" fill="#fff" opacity="0.30"/><circle cx="1560" cy="847" r="1" fill="#fff" opacity="0.30"/><circle cx="424" cy="784" r="2" fill="#fff" opacity="0.28"/><circle cx="486" cy="337" r="2" fill="#fff" opacity="0.36"/><circle cx="1508" cy="595" r="2" fill="#fff" opacity="0.53"/><circle cx="589" cy="405" r="3" fill="#fff" opacity="0.83"/><circle cx="665" cy="107" r="2" fill="#fff" opacity="0.61"/><circle cx="150" cy="246" r="2" fill="#fff" opacity="0.31"/><circle cx="165" cy="703" r="1" fill="#fff" opacity="0.34"/><circle cx="1545" cy="684" r="2" fill="#fff" opacity="0.43"/><circle cx="732" cy="745" r="3" fill="#fff" opacity="0.78"/><circle cx="130" cy="60" r="3" fill="#fff" opacity="0.28"/><circle cx="557" cy="393" r="1" fill="#fff" opacity="0.22"/><circle cx="1425" cy="392" r="3" fill="#fff" opacity="0.32"/><circle cx="1048" cy="385" r="3" fill="#fff" opacity="0.45"/><circle cx="1049" cy="522" r="2" fill="#fff" opacity="0.39"/><circle cx="1277" cy="292" r="2" fill="#fff" opacity="0.78"/><circle cx="799" cy="270" r="1" fill="#fff" opacity="0.27"/><circle cx="306" cy="328" r="1" fill="#fff" opacity="0.32"/><circle cx="619" cy="47" r="3" fill="#fff" opacity="0.22"/><circle cx="887" cy="194" r="3" fill="#fff" opacity="0.66"/><circle cx="647" cy="694" r="2" fill="#fff" opacity="0.44"/><circle cx="287" cy="646" r="3" fill="#fff" opacity="0.48"/><circle cx="738" cy="415" r="1" fill="#fff" opacity="0.57"/><circle cx="760" cy="556" r="3" fill="#fff" opacity="0.81"/><circle cx="336" cy="836" r="3" fill="#fff" opacity="0.36"/><circle cx="1523" cy="686" r="3" fill="#fff" opacity="0.27"/><circle cx="686" cy="534" r="3" fill="#fff" opacity="0.32"/><circle cx="1441" cy="721" r="2" fill="#fff" opacity="0.68"/><circle cx="359" cy="156" r="2" fill="#fff" opacity="0.85"/><circle cx="719" cy="363" r="3" fill="#fff" opacity="0.56"/><circle cx="960" cy="769" r="3" fill="#fff" opacity="0.47"/><circle cx="1093" cy="512" r="3" fill="#fff" opacity="0.77"/><circle cx="506" cy="590" r="1" fill="#fff" opacity="0.67"/><circle cx="1007" cy="622" r="2" fill="#fff" opacity="0.79"/><circle cx="1145" cy="286" r="1" fill="#fff" opacity="0.71"/><circle cx="1155" cy="489" r="1" fill="#fff" opacity="0.58"/><circle cx="728" cy="622" r="2" fill="#fff" opacity="0.27"/><circle cx="852" cy="795" r="2" fill="#fff" opacity="0.79"/><circle cx="1163" cy="143" r="1" fill="#fff" opacity="0.83"/><circle cx="881" cy="486" r="3" fill="#fff" opacity="0.53"/><circle cx="112" cy="231" r="3" fill="#fff" opacity="0.54"/><circle cx="1537" cy="179" r="1" fill="#fff" opacity="0.32"/><circle cx="737" cy="222" r="2" fill="#fff" opacity="0.82"/><circle cx="1580" cy="300" r="1" fill="#fff" opacity="0.49"/><circle cx="224" cy="573" r="3" fill="#fff" opacity="0.52"/><circle cx="686" cy="405" r="3" fill="#fff" opacity="0.32"/><circle cx="882" cy="286" r="1" fill="#fff" opacity="0.84"/><circle cx="1368" cy="342" r="2" fill="#fff" opacity="0.84"/><circle cx="1461" cy="99" r="1" fill="#fff" opacity="0.39"/><circle cx="1044" cy="800" r="1" fill="#fff" opacity="0.69"/><circle cx="1558" cy="807" r="1" fill="#fff" opacity="0.84"/><circle cx="1021" cy="498" r="1" fill="#fff" opacity="0.71"/><circle cx="54" cy="522" r="2" fill="#fff" opacity="0.41"/><circle cx="1383" cy="425" r="2" fill="#fff" opacity="0.22"/><circle cx="404" cy="782" r="1" fill="#fff" opacity="0.28"/><circle cx="361" cy="785" r="2" fill="#fff" opacity="0.51"/><circle cx="78" cy="164" r="2" fill="#fff" opacity="0.47"/><circle cx="158" cy="652" r="2" fill="#fff" opacity="0.52"/><circle cx="399" cy="27" r="2" fill="#fff" opacity="0.27"/><circle cx="196" cy="772" r="2" fill="#fff" opacity="0.71"/><circle cx="250" cy="844" r="3" fill="#fff" opacity="0.68"/><circle cx="749" cy="722" r="2" fill="#fff" opacity="0.39"/><circle cx="1109" cy="257" r="2" fill="#fff" opacity="0.24"/><circle cx="1560" cy="134" r="2" fill="#fff" opacity="0.50"/><circle cx="462" cy="504" r="3" fill="#fff" opacity="0.84"/><circle cx="1519" cy="405" r="3" fill="#fff" opacity="0.82"/><circle cx="1077" cy="421" r="2" fill="#fff" opacity="0.53"/><circle cx="1360" cy="843" r="3" fill="#fff" opacity="0.27"/><circle cx="1037" cy="318" r="1" fill="#fff" opacity="0.82"/><circle cx="1427" cy="278" r="1" fill="#fff" opacity="0.28"/><circle cx="1210" cy="270" r="155" fill="url(#planet)"/><path d="M0 520Q400 300 800 520T1600 520" fill="none" stroke="#ffbcea" stroke-width="70" opacity=".12"/><g transform="translate(1210 270) scale(2.3)"><ellipse rx="34" ry="23" transform="rotate(-25)" fill="#edff61"/><path d="M20 -24q25 -20 32 0q-20 14 -32 0" fill="#75e8a0"/></g><ellipse cx="430" cy="230" rx="110" ry="60" fill="hsl(60,80%,65%)" opacity=".13"/><rect x="0" y="470" width="39" height="230" rx="8" fill="hsl(20,35%,23%)"/><path d="M12 480v205" stroke="hsl(60,80%,65%)" stroke-width="3" opacity=".4"/><rect x="74" y="579" width="37" height="121" rx="8" fill="hsl(20,35%,23%)"/><path d="M86 589v96" stroke="hsl(60,80%,65%)" stroke-width="3" opacity=".4"/><rect x="148" y="462" width="37" height="238" rx="8" fill="hsl(20,35%,23%)"/><path d="M160 472v213" stroke="hsl(60,80%,65%)" stroke-width="3" opacity=".4"/><rect x="222" y="453" width="62" height="247" rx="8" fill="hsl(20,35%,23%)"/><path d="M234 463v222" stroke="hsl(60,80%,65%)" stroke-width="3" opacity=".4"/><rect x="296" y="489" width="41" height="211" rx="8" fill="hsl(20,35%,23%)"/><path d="M308 499v186" stroke="hsl(60,80%,65%)" stroke-width="3" opacity=".4"/><rect x="370" y="465" width="63" height="235" rx="8" fill="hsl(20,35%,23%)"/><path d="M382 475v210" stroke="hsl(60,80%,65%)" stroke-width="3" opacity=".4"/><rect x="444" y="458" width="67" height="242" rx="8" fill="hsl(20,35%,23%)"/><path d="M456 468v217" stroke="hsl(60,80%,65%)" stroke-width="3" opacity=".4"/><rect x="518" y="513" width="67" height="187" rx="8" fill="hsl(20,35%,23%)"/><path d="M530 523v162" stroke="hsl(60,80%,65%)" stroke-width="3" opacity=".4"/><rect x="592" y="458" width="48" height="242" rx="8" fill="hsl(20,35%,23%)"/><path d="M604 468v217" stroke="hsl(60,80%,65%)" stroke-width="3" opacity=".4"/><rect x="666" y="430" width="40" height="270" rx="8" fill="hsl(20,35%,23%)"/><path d="M678 440v245" stroke="hsl(60,80%,65%)" stroke-width="3" opacity=".4"/><rect x="740" y="465" width="55" height="235" rx="8" fill="hsl(20,35%,23%)"/><path d="M752 475v210" stroke="hsl(60,80%,65%)" stroke-width="3" opacity=".4"/><rect x="814" y="561" width="60" height="139" rx="8" fill="hsl(20,35%,23%)"/><path d="M826 571v114" stroke="hsl(60,80%,65%)" stroke-width="3" opacity=".4"/><rect x="888" y="562" width="41" height="138" rx="8" fill="hsl(20,35%,23%)"/><path d="M900 572v113" stroke="hsl(60,80%,65%)" stroke-width="3" opacity=".4"/><rect x="962" y="598" width="65" height="102" rx="8" fill="hsl(20,35%,23%)"/><path d="M974 608v77" stroke="hsl(60,80%,65%)" stroke-width="3" opacity=".4"/><rect x="1036" y="616" width="50" height="84" rx="8" fill="hsl(20,35%,23%)"/><path d="M1048 626v59" stroke="hsl(60,80%,65%)" stroke-width="3" opacity=".4"/><rect x="1110" y="417" width="38" height="283" rx="8" fill="hsl(20,35%,23%)"/><path d="M1122 427v258" stroke="hsl(60,80%,65%)" stroke-width="3" opacity=".4"/><rect x="1184" y="597" width="39" height="103" rx="8" fill="hsl(20,35%,23%)"/><path d="M1196 607v78" stroke="hsl(60,80%,65%)" stroke-width="3" opacity=".4"/><rect x="1258" y="484" width="60" height="216" rx="8" fill="hsl(20,35%,23%)"/><path d="M1270 494v191" stroke="hsl(60,80%,65%)" stroke-width="3" opacity=".4"/><rect x="1332" y="463" width="65" height="237" rx="8" fill="hsl(20,35%,23%)"/><path d="M1344 473v212" stroke="hsl(60,80%,65%)" stroke-width="3" opacity=".4"/><rect x="1406" y="571" width="57" height="129" rx="8" fill="hsl(20,35%,23%)"/><path d="M1418 581v104" stroke="hsl(60,80%,65%)" stroke-width="3" opacity=".4"/><rect x="1480" y="437" width="38" height="263" rx="8" fill="hsl(20,35%,23%)"/><path d="M1492 447v238" stroke="hsl(60,80%,65%)" stroke-width="3" opacity=".4"/><rect x="1554" y="434" width="58" height="266" rx="8" fill="hsl(20,35%,23%)"/><path d="M1566 444v241" stroke="hsl(60,80%,65%)" stroke-width="3" opacity=".4"/><path d="M0 740Q500 650 950 760T1600 720V900H0Z" fill="hsl(20,30%,16%)"/><path d="M0 786Q700 695 1600 795" fill="none" stroke="hsl(60,80%,65%)" stroke-width="2" opacity=".3"/><g transform="translate(180 438)"><ellipse cy="120" rx="108" ry="22" fill="hsl(60,80%,65%)" opacity=".2"/><rect x="-78" y="-16" width="156" height="115" rx="18" fill="#28384d" stroke="hsl(60,80%,65%)" stroke-width="3"/><path d="M-94 -16L-54 -70H54L94 -16Z" fill="hsl(60,80%,65%)"/><rect x="-53" y="20" width="106" height="44" rx="8" fill="#a8eee4"/><g transform="translate(0 -40) scale(.65)"><ellipse rx="34" ry="23" transform="rotate(-25)" fill="#edff61"/><path d="M20 -24q25 -20 32 0q-20 14 -32 0" fill="#75e8a0"/></g><path d="M-100 100h200" stroke="#e9fd75" stroke-width="7"/><circle cx="-60" cy="122" r="8" fill="#f3ff98"/><circle cx="60" cy="122" r="8" fill="#f3ff98"/></g><g transform="translate(370 482)"><ellipse cy="120" rx="108" ry="22" fill="hsl(60,80%,65%)" opacity=".2"/><rect x="-78" y="-16" width="156" height="115" rx="18" fill="#28384d" stroke="hsl(60,80%,65%)" stroke-width="3"/><path d="M-94 -16L-54 -70H54L94 -16Z" fill="hsl(60,80%,65%)"/><rect x="-53" y="20" width="106" height="44" rx="8" fill="#a8eee4"/><g transform="translate(0 -40) scale(.65)"><ellipse rx="34" ry="23" transform="rotate(-25)" fill="#edff61"/><path d="M20 -24q25 -20 32 0q-20 14 -32 0" fill="#75e8a0"/></g><path d="M-100 100h200" stroke="#e9fd75" stroke-width="7"/><circle cx="-60" cy="122" r="8" fill="#f3ff98"/><circle cx="60" cy="122" r="8" fill="#f3ff98"/></g><g transform="translate(560 542)"><ellipse cy="120" rx="108" ry="22" fill="hsl(60,80%,65%)" opacity=".2"/><rect x="-78" y="-16" width="156" height="115" rx="18" fill="#28384d" stroke="hsl(60,80%,65%)" stroke-width="3"/><path d="M-94 -16L-54 -70H54L94 -16Z" fill="hsl(60,80%,65%)"/><rect x="-53" y="20" width="106" height="44" rx="8" fill="#a8eee4"/><g transform="translate(0 -40) scale(.65)"><ellipse rx="34" ry="23" transform="rotate(-25)" fill="#edff61"/><path d="M20 -24q25 -20 32 0q-20 14 -32 0" fill="#75e8a0"/></g><path d="M-100 100h200" stroke="#e9fd75" stroke-width="7"/><circle cx="-60" cy="122" r="8" fill="#f3ff98"/><circle cx="60" cy="122" r="8" fill="#f3ff98"/></g><g transform="translate(750 564)"><ellipse cy="120" rx="108" ry="22" fill="hsl(60,80%,65%)" opacity=".2"/><rect x="-78" y="-16" width="156" height="115" rx="18" fill="#28384d" stroke="hsl(60,80%,65%)" stroke-width="3"/><path d="M-94 -16L-54 -70H54L94 -16Z" fill="hsl(60,80%,65%)"/><rect x="-53" y="20" width="106" height="44" rx="8" fill="#a8eee4"/><g transform="translate(0 -40) scale(.65)"><ellipse rx="34" ry="23" transform="rotate(-25)" fill="#edff61"/><path d="M20 -24q25 -20 32 0q-20 14 -32 0" fill="#75e8a0"/></g><path d="M-100 100h200" stroke="#e9fd75" stroke-width="7"/><circle cx="-60" cy="122" r="8" fill="#f3ff98"/><circle cx="60" cy="122" r="8" fill="#f3ff98"/></g><g transform="translate(940 526)"><ellipse cy="120" rx="108" ry="22" fill="hsl(60,80%,65%)" opacity=".2"/><rect x="-78" y="-16" width="156" height="115" rx="18" fill="#28384d" stroke="hsl(60,80%,65%)" stroke-width="3"/><path d="M-94 -16L-54 -70H54L94 -16Z" fill="hsl(60,80%,65%)"/><rect x="-53" y="20" width="106" height="44" rx="8" fill="#a8eee4"/><g transform="translate(0 -40) scale(.65)"><ellipse rx="34" ry="23" transform="rotate(-25)" fill="#edff61"/><path d="M20 -24q25 -20 32 0q-20 14 -32 0" fill="#75e8a0"/></g><path d="M-100 100h200" stroke="#e9fd75" stroke-width="7"/><circle cx="-60" cy="122" r="8" fill="#f3ff98"/><circle cx="60" cy="122" r="8" fill="#f3ff98"/></g><g transform="translate(810 345)"><ellipse rx="95" ry="125" fill="none" stroke="hsl(60,80%,65%)" stroke-width="16" opacity=".5"/><ellipse rx="72" ry="107" fill="none" stroke="#eaff8b" stroke-width="4"/><ellipse rx="34" ry="23" transform="rotate(-25)" fill="#edff61"/><path d="M20 -24q25 -20 32 0q-20 14 -32 0" fill="#75e8a0"/></g></svg>